# xmcd CD database file
#
# Track frame offsets:
#	150
#	25054
#	44508
#	65853
#	87175
#	105193
#	135946
#	153299
#	177730
#	196714
#	214346
#	231871
#	250248
#	266967
#
# Disc length: 3793 seconds
#
# Revision: 0
# Processed by: cddbd v1.5.1PL0 Copyright (c) Steve Scherf et al.
# Submitted via: CDex 1.51
#
DISCID=c20ecf0e
DTITLE=Levantis and Michiko Tanaka - Cafe Nippon
DYEAR=2002
DGENRE=New Age
TTITLE0=Matsumae
TTITLE1=Geisha's Dance
TTITLE2=Ode To Basho
TTITLE3=Nara
TTITLE4=Beautiful Ibana
TTITLE5=Great Mystery of Shinto
TTITLE6=Ocean of Eternity
TTITLE7=Matsuri Festival
TTITLE8=Amanohashidate
TTITLE9=Sleeping Vulcano
TTITLE10=Holy Mountain
TTITLE11=Cherry Blossom Melody
TTITLE12=Sacred Fushimi - Inari
TTITLE13=Chanoyu Ceremony
EXTD=YEAR: 2002
EXTT0=
EXTT1=
EXTT2=
EXTT3=
EXTT4=
EXTT5=
EXTT6=
EXTT7=
EXTT8=
EXTT9=
EXTT10=
EXTT11=
EXTT12=
EXTT13=
PLAYORDER=
